# xmcd
#
# Track frame offsets: 
#        150
#        13214
#        28354
#        37781
#        49934
#        62709
#        72398
#        82102
#        93397
#        104209
#
# Disc length: 1530 seconds
#
# Revision: 0
# Processed by: cddbd v1.5.2PL0 Copyright (c) Steve Scherf et al.
# Submitted via: ExactAudioCopyFreeDBPlugin 1.0
#
DISCID=8f05f80a
DTITLE=Various Artist - Country Classics - Hits Of 1962
DYEAR=1999
DGENRE=Country
TTITLE0=Carl And Pearl Butler - Don't Let Me Cross Over
TTITLE1=Jimmy Dean - P.T. 109
TTITLE2=Roy Drusky - Second Hand Rose
TTITLE3=Stonewall Jackson - A Wound Time Can't Erase
TTITLE4=Claude King - Wolverton Mountain
TTITLE5=Rose Maddox - Sing A Little Song Of Heartache
TTITLE6=Ned Miller - From A Jack To A King
TTITLE7=Porter Wagoner - Misery Loves Company
TTITLE8=Billy Walker - Charlie's Shoes
TTITLE9=Kitty Wells - Unloved Unwanted
EXTD=
EXTT0=
EXTT1=
EXTT2=
EXTT3=
EXTT4=
EXTT5=
EXTT6=
EXTT7=
EXTT8=
EXTT9=
PLAYORDER=
